/* XPM */
static char *_5e08c0b94264a1b8e4948b8dace05fa[] = {
/* columns rows colors chars-per-pixel */
"72 72 15 1 ",
"  c #131327",
". c #3E1537",
"X c #2A2A47",
"o c #8B3615",
"O c #B0183E",
"+ c #E42D38",
"@ c #F25663",
"# c #FF737A",
"$ c #468A36",
"% c #5F9736",
"& c #77A236",
"* c #1A9556",
"= c #FFA200",
"- c #89DD47",
"; c #FFA69D",
/* pixels */
"%%%%%%%%%%%%%%%%%%%%%%%%%%%%%%%%%%%%%%%%%%&&&%%%$$$$$$$$$%%%%%%$$$$$$%%%",
"%%%%%%%%%%%%%%%%%%%%%%%%%%%%%%%%%%%%%%%%%%&&&%%%$$$$$$$$$%%%%%%$$$$$$%%%",
"%%%%%%%%%%%%%%%%%%%%%%%%%%%%%%%%%%%%%%%%%%&&&%%%$$$$$$$$$%%%%%%$$$$$$%%%",
"%%%%%%%%%%%%%%%%%%%%%%%%%%%%%%%%%%%%%%%%%%%%%%%%%%%$$$$$$$$$$$$$$$$$$%%%",
"%%%%%%%%%%%%%%%%%%%%%%%%%%%%%%%%%%%%%%%%%%%%%%%%%%%$$$$$$$$$$$$$$$$$$%%%",
"%%%%%%%%%%%%%%%%%%%%%%%%%%%%%%%%%%%%%%%%%%%%%%%%%%%$$$$$$$$$$$$$$$$$$%%%",
"%%%%%%%%%%%%%%%%%%%%%%%%%%%%%%%%%$$$$$$$$$$$$%%%%%%$$$$$$$$$$$$$$$$$$%%%",
"%%%%%%%%%%%%%%%%%%%%%%%%%%%%%%%%%$$$$$$$$$$$$%%%%%%$$$$$$$$$$$$$$$$$$%%%",
"%%%%%%%%%%%%%%%%%%%%%%%%%%%%%%%%%$$$$$$$$$$$$%%%%%%$$$$$$$$$$$$$$$$$$%%%",
"%%%%%%%%%%%%%%%%%%$$$$$$%%%%%%%%%$$$$$$$$$$$$$$$%%%%%%$$$$$$$$$$$$$$$%%%",
"%%%%%%%%%%%%%%%%%%$$$$$$%%%%%%%%%$$$$$$$$$$$$$$$%%%%%%$$$$$$$$$$$$$$$%%%",
"%%%%%%%%%%%%%%%%%%$$$$$$%%%%%%%%%$$$$$$$$$$$$$$$%%%%%%$$$$$$$$$$$$$$$%%%",
"&&&%%%%%%%%%%%%%%%$$$$$$$$$$$$%%%%%%$$$.........$$$$$$$$$$$$$$$$$$$$$$$$",
"&&&%%%%%%%%%%%%%%%$$$$$$$$$$$$%%%%%%$$$.........$$$$$$$$$$$$$$$$$$$$$$$$",
"&&&%%%%%%%%%%%%%%%$$$$$$$$$$$$%%%%%%$$$.........$$$$$$$$$$$$$$$$$$$$$$$$",
"%%%%%%%%%%%%%%%%%%   ......$$$$$$%%%...;;;;;;;;;......$$$$$$$$$$$$$$$$$$",
"%%%%%%%%%%%%%%%%%%   ......$$$$$$%%%...;;;;;;;;;......$$$$$$$$$$$$$$$$$$",
"%%%%%%%%%%%%%%%%%%   ......$$$$$$%%%...;;;;;;;;;......$$$$$$$$$$$$$$$$$$",
"%%%%%%%%%%%%%%%   ###;;;@@@...$$$...+++;;;;;;;;;;;;+++...$$$$$$$$$$$$$$$",
"%%%%%%%%%%%%%%%   ###;;;@@@...$$$...+++;;;;;;;;;;;;+++...$$$$$$$$$$$$$$$",
"%%%%%%%%%%%%%%%   ###;;;@@@...$$$...+++;;;;;;;;;;;;+++...$$$$$$$$$$$$$$$",
"%%%%%%%%%%%%   ###;;;;;;;;;@@@...OOO###;;;;;;@@@;;;;;;...$$$$$$$$$$$$$$$",
"%%%%%%%%%%%%   ###;;;;;;;;;@@@...OOO###;;;;;;@@@;;;;;;...$$$$$$$$$$$$$$$",
"%%%%%%%%%%%%   ###;;;;;;;;;@@@...OOO###;;;;;;@@@;;;;;;...$$$$$$$$$$$$$$$",
"%%%%%%%%%%%%   ###;;;;;;;;;;;;###OOO@@@###@@@###;;;;;;...$$$$$$$$$$$$$$$",
"%%%%%%%%%%%%   ###;;;;;;;;;;;;###OOO@@@###@@@###;;;;;;...$$$$$$$$$$$$$$$",
"%%%%%%%%%%%%   ###;;;;;;;;;;;;###OOO@@@###@@@###;;;;;;...$$$$$$$$$$$$$$$",
"&&&&&&%%%%%%...;;;;;;;;;@@@+++@@@OOO@@@+++###;;;;;;###...$$$$$$$$$$$$$$$",
"&&&&&&%%%%%%...;;;;;;;;;@@@+++@@@OOO@@@+++###;;;;;;###...$$$$$$$$$$$$$$$",
"&&&&&&%%%%%%...;;;;;;;;;@@@+++@@@OOO@@@+++###;;;;;;###...$$$$$$$$$$$$$$$",
"%%%%%%%%%%%%...;;;;;;;;;;;;@@@oooooooooooo#########+++...$$$$$$$$$$$$$$$",
"%%%%%%%%%%%%...;;;;;;;;;;;;@@@oooooooooooo#########+++...$$$$$$$$$$$$$$$",
"%%%%%%%%%%%%...;;;;;;;;;;;;@@@oooooooooooo#########+++...$$$$$$$$$$$$$$$",
"%%%%%%%%%$$$...;;;;;;;;;@@@+++OOO======OOOOOOOOO   ......$$$$$$$$$$$$$$$",
"%%%%%%%%%$$$...;;;;;;;;;@@@+++OOO======OOOOOOOOO   ......$$$$$$$$$$$$$$$",
"%%%%%%%%%$$$...;;;;;;;;;@@@+++OOO======OOOOOOOOO   ......$$$$$$$$$$$$$$$",
"%%%%%%%%%%%%$$$...######+++OOO+++OOOOOO+++++++++...   $$$$$$$$$$$$$$$$$$",
"%%%%%%%%%%%%$$$...######+++OOO+++OOOOOO+++++++++...   $$$$$$$$$$$$$$$$$$",
"%%%%%%%%%%%%$$$...######+++OOO+++OOOOOO+++++++++...   $$$$$$$$$$$$$$$$$$",
"&&&&&&&&&&&&&&&XXX...   OOO+++@@@@@@OOO@@@@@@@@@+++...$$$$$$$$$$$$$$$$$$",
"&&&&&&&&&&&&&&&XXX...   OOO+++@@@@@@OOO@@@@@@@@@+++...$$$$$$$$$$$$$$$$$$",
"&&&&&&&&&&&&&&&XXX...   OOO+++@@@@@@OOO@@@@@@@@@+++...$$$$$$$$$$$$$$$$$$",
"&&&%%%%%%%%%%%%XXX------   #########@@@@@@;;;######   $$$$$$$$$$$$$$$$$$",
"&&&%%%%%%%%%%%%XXX------   #########@@@@@@;;;######   $$$$$$$$$$$$$$$$$$",
"&&&%%%%%%%%%%%%XXX------   #########@@@@@@;;;######   $$$$$$$$$$$$$$$$$$",
"&&&&&&&&&%%%XXX------******   ###;;;;;;@@@;;;;;;###   %%%$$$$$$$$$$$$$$$",
"&&&&&&&&&%%%XXX------******   ###;;;;;;@@@;;;;;;###   %%%$$$$$$$$$$$$$$$",
"&&&&&&&&&%%%XXX------******   ###;;;;;;@@@;;;;;;###   %%%$$$$$$$$$$$$$$$",
"%%%%%%%%%%%%XXX---******XXX   ###;;;;;;;;;;;;;;;...$$$%%%%%%$$$$$$$$$%%%",
"%%%%%%%%%%%%XXX---******XXX   ###;;;;;;;;;;;;;;;...$$$%%%%%%$$$$$$$$$%%%",
"%%%%%%%%%%%%XXX---******XXX   ###;;;;;;;;;;;;;;;...$$$%%%%%%$$$$$$$$$%%%",
"&&&%%%$$$$$$XXXXXXXXXXXX%%%$$$...;;;;;;;;;;;;...%%%%%%%%%$$$$$$$$$%%%%%%",
"&&&%%%$$$$$$XXXXXXXXXXXX%%%$$$...;;;;;;;;;;;;...%%%%%%%%%$$$$$$$$$%%%%%%",
"&&&%%%$$$$$$XXXXXXXXXXXX%%%$$$...;;;;;;;;;;;;...%%%%%%%%%$$$$$$$$$%%%%%%",
"&&&&&&%%%$$$$$$$$$$$$$$$$$$$$$$$$............%%%%%%&&&%%%%%%$$$$$$%%%%%%",
"&&&&&&%%%$$$$$$$$$$$$$$$$$$$$$$$$............%%%%%%&&&%%%%%%$$$$$$%%%%%%",
"&&&&&&%%%$$$$$$$$$$$$$$$$$$$$$$$$............%%%%%%&&&%%%%%%$$$$$$%%%%%%",
"%%%%%%%%%%%%$$$$$$$$$$$$$$$$$$$$$$$$$$$%%%%%%%%%%%%%%%&&&&&&%%%%%%%%%%%%",
"%%%%%%%%%%%%$$$$$$$$$$$$$$$$$$$$$$$$$$$%%%%%%%%%%%%%%%&&&&&&%%%%%%%%%%%%",
"%%%%%%%%%%%%$$$$$$$$$$$$$$$$$$$$$$$$$$$%%%%%%%%%%%%%%%&&&&&&%%%%%%%%%%%%",
"%%%%%%%%%%%%%%%%%%$$$$$$$$$$$$$$$$$$$$$$$$%%%%%%%%%%%%%%%&&&&&&%%%%%%%%%",
"%%%%%%%%%%%%%%%%%%$$$$$$$$$$$$$$$$$$$$$$$$%%%%%%%%%%%%%%%&&&&&&%%%%%%%%%",
"%%%%%%%%%%%%%%%%%%$$$$$$$$$$$$$$$$$$$$$$$$%%%%%%%%%%%%%%%&&&&&&%%%%%%%%%",
"%%%%%%$$$$$$$$$$$$$$$$$$$$$$$$$$$$$$$$$$$$%%%%%%%%%%%%%%%&&&&&&&&&%%%%%%",
"%%%%%%$$$$$$$$$$$$$$$$$$$$$$$$$$$$$$$$$$$$%%%%%%%%%%%%%%%&&&&&&&&&%%%%%%",
"%%%%%%$$$$$$$$$$$$$$$$$$$$$$$$$$$$$$$$$$$$%%%%%%%%%%%%%%%&&&&&&&&&%%%%%%",
"%%%%%%%%%$$$$$$$$$$$$$$$$$$$$$$$$$$$%%%$$$%%%%%%%%%%%%&&&&&&&&&&&&&&&&&&",
"%%%%%%%%%$$$$$$$$$$$$$$$$$$$$$$$$$$$%%%$$$%%%%%%%%%%%%&&&&&&&&&&&&&&&&&&",
"%%%%%%%%%$$$$$$$$$$$$$$$$$$$$$$$$$$$%%%$$$%%%%%%%%%%%%&&&&&&&&&&&&&&&&&&",
"%%%%%%%%%%%%%%%%%%%%%%%%$$$$$$$$$$$$%%%%%%%%%%%%%%%%%%&&&&&&&&&&&&&&&&&&",
"%%%%%%%%%%%%%%%%%%%%%%%%$$$$$$$$$$$$%%%%%%%%%%%%%%%%%%&&&&&&&&&&&&&&&&&&",
"%%%%%%%%%%%%%%%%%%%%%%%%$$$$$$$$$$$$%%%%%%%%%%%%%%%%%%&&&&&&&&&&&&&&&&&&"
};
