/* XPM */
static char *_1b3f81558414bc4b50da37d8eba752aBsIfVTPwKkLKM7zf[] = {
/* columns rows colors chars-per-pixel */
"72 72 13 1 ",
"  c #23101D",
". c #3A2032",
"X c #542833",
"o c #623436",
"O c #8B4335",
"+ c #B95027",
"@ c #D1690A",
"# c #468A36",
"$ c #5F9736",
"% c #77A236",
"& c #FFA200",
"* c #E08650",
"= c #F4FF9B",
/* pixels */
"###$$$$$$$$$$$$$$$$$$$$$$$$$$$$$$$$$$$$$$$$$$$$$##################$$$###",
"###$$$$$$$$$$$$$$$$$$$$$$$$$$$$$$$$$$$$$$$$$$$$$##################$$$###",
"###$$$$$$$$$$$$$$$$$$$$$$$$$$$$$$$$$$$$$$$$$$$$$##################$$$###",
"$$$###$$$###XXXXXXXXXXXXXXXXXXXXXXXXXXXXXXXXXXXXXXXXXXXXXXXX############",
"$$$###$$$###XXXXXXXXXXXXXXXXXXXXXXXXXXXXXXXXXXXXXXXXXXXXXXXX############",
"$$$###$$$###XXXXXXXXXXXXXXXXXXXXXXXXXXXXXXXXXXXXXXXXXXXXXXXX############",
"$$$$$$###XXX@@@************@@@@@@***@@@***@@@@@@@@@@@@@@@@@@XXX######$$$",
"$$$$$$###XXX@@@************@@@@@@***@@@***@@@@@@@@@@@@@@@@@@XXX######$$$",
"$$$$$$###XXX@@@************@@@@@@***@@@***@@@@@@@@@@@@@@@@@@XXX######$$$",
"$$$$$$XXX++++++++++++++++++++++++++++++++++++++++++++++++++++++XXX###$$$",
"$$$$$$XXX++++++++++++++++++++++++++++++++++++++++++++++++++++++XXX###$$$",
"$$$$$$XXX++++++++++++++++++++++++++++++++++++++++++++++++++++++XXX###$$$",
"$$$$$$XXX+++XXX                                          XXX+++XXX###$$$",
"$$$$$$XXX+++XXX                                          XXX+++XXX###$$$",
"$$$$$$XXX+++XXX                                          XXX+++XXX###$$$",
"$$$$$$XXX+++   XXXXXXXXXOOOOOOOOOOOOOOOOOOXXXXXXXXXOOOXXX   +++XXX###$$$",
"$$$$$$XXX+++   XXXXXXXXXOOOOOOOOOOOOOOOOOOXXXXXXXXXOOOXXX   +++XXX###$$$",
"$$$$$$XXX+++   XXXXXXXXXOOOOOOOOOOOOOOOOOOXXXXXXXXXOOOXXX   +++XXX###$$$",
"$$$$$$XXX+++   OOO+++OOO+++@@@@@@@@@@@@+++OOO++++++OOOOOO   +++XXX###$$$",
"$$$$$$XXX+++   OOO+++OOO+++@@@@@@@@@@@@+++OOO++++++OOOOOO   +++XXX###$$$",
"$$$$$$XXX+++   OOO+++OOO+++@@@@@@@@@@@@+++OOO++++++OOOOOO   +++XXX###$$$",
"$$$$$$   +++   ===...OOO+++@@@@@@@@@@@@+++OOO@@@@@@+++OOO   +++   ###$$$",
"$$$$$$   +++   ===...OOO+++@@@@@@@@@@@@+++OOO@@@@@@+++OOO   +++   ###$$$",
"$$$$$$   +++   ===...OOO+++@@@@@@@@@@@@+++OOO@@@@@@+++OOO   +++   ###$$$",
"$$$$$$   +++   &&&&&&...+++@@@@@@@@@@@@++++++@@@@@@+++OOO   +++   ###$$$",
"$$$$$$   +++   &&&&&&...+++@@@@@@@@@@@@++++++@@@@@@+++OOO   +++   ###$$$",
"$$$$$$   +++   &&&&&&...+++@@@@@@@@@@@@++++++@@@@@@+++OOO   +++   ###$$$",
"$$$$$$   +++   @@@...OOO+++@@@@@@@@@@@@+++OOO@@@@@@+++OOO   +++   ###$$$",
"$$$$$$   +++   @@@...OOO+++@@@@@@@@@@@@+++OOO@@@@@@+++OOO   +++   ###$$$",
"$$$$$$   +++   @@@...OOO+++@@@@@@@@@@@@+++OOO@@@@@@+++OOO   +++   ###$$$",
"$$$$$$   +++   ...@@@OOO+++@@@@@@@@@@@@+++OOO@@@@@@oooooo   +++   ###$$$",
"$$$$$$   +++   ...@@@OOO+++@@@@@@@@@@@@+++OOO@@@@@@oooooo   +++   ###$$$",
"$$$$$$   +++   ...@@@OOO+++@@@@@@@@@@@@+++OOO@@@@@@oooooo   +++   ###$$$",
"$$$$$$   OOO   OOO@@@OOO++++++@@@@@@++++++OOO@@@ooo===&&&   OOO   ###$$$",
"$$$$$$   OOO   OOO@@@OOO++++++@@@@@@++++++OOO@@@ooo===&&&   OOO   ###$$$",
"$$$$$$   OOO   OOO@@@OOO++++++@@@@@@++++++OOO@@@ooo===&&&   OOO   ###$$$",
"$$$%%%   OOO   OOO+++OOO++++++++++++++++++OOO+++ooo===&&&   OOO   ###$$$",
"$$$%%%   OOO   OOO+++OOO++++++++++++++++++OOO+++ooo===&&&   OOO   ###$$$",
"$$$%%%   OOO   OOO+++OOO++++++++++++++++++OOO+++ooo===&&&   OOO   ###$$$",
"$$$$$$   OOO   OOO+++OOO++++++++++++++++++OOO+++...@@@@@@   OOO   ###$$$",
"$$$$$$   OOO   OOO+++OOO++++++++++++++++++OOO+++...@@@@@@   OOO   ###$$$",
"$$$$$$   OOO   OOO+++OOO++++++++++++++++++OOO+++...@@@@@@   OOO   ###$$$",
"$$$%%%   OOO   OOO+++OOO+++++++++++++++++++++++++++......   OOO   ###$$$",
"$$$%%%   OOO   OOO+++OOO+++++++++++++++++++++++++++......   OOO   ###$$$",
"$$$%%%   OOO   OOO+++OOO+++++++++++++++++++++++++++......   OOO   ###$$$",
"$$$$$$   XXX   ...+++XXX++++++++++++++++++++++++++++++OOO   XXX   $$$$$$",
"$$$$$$   XXX   ...+++XXX++++++++++++++++++++++++++++++OOO   XXX   $$$$$$",
"$$$$$$   XXX   ...+++XXX++++++++++++++++++++++++++++++OOO   XXX   $$$$$$",
"$$$###   XXX   ===...OOO++++++++++++++++++++++++++++++OOO   XXX   $$$$$$",
"$$$###   XXX   ===...OOO++++++++++++++++++++++++++++++OOO   XXX   $$$$$$",
"$$$###   XXX   ===...OOO++++++++++++++++++++++++++++++OOO   XXX   $$$$$$",
"$$$$$$   XXX   &&&&&&...+++++++++++++++++++++OOO+++OOOOOO   XXX   $$$$$$",
"$$$$$$   XXX   &&&&&&...+++++++++++++++++++++OOO+++OOOOOO   XXX   $$$$$$",
"$$$$$$   XXX   &&&&&&...+++++++++++++++++++++OOO+++OOOOOO   XXX   $$$$$$",
"$$$$$$   XXX   @@@...XXXOOO+++++++++++++++OOOXXXOOOOOOOOO   XXX   $$$$$$",
"$$$$$$   XXX   @@@...XXXOOO+++++++++++++++OOOXXXOOOOOOOOO   XXX   $$$$$$",
"$$$$$$   XXX   @@@...XXXOOO+++++++++++++++OOOXXXOOOOOOOOO   XXX   $$$$$$",
"$$$$$$   XXX   XXXOOOXXXXXXOOOOOOOOOOOOOOOXXXXXXOOOXXXXXX   XXX   $$$$$$",
"$$$$$$   XXX   XXXOOOXXXXXXOOOOOOOOOOOOOOOXXXXXXOOOXXXXXX   XXX   $$$$$$",
"$$$$$$   XXX   XXXOOOXXXXXXOOOOOOOOOOOOOOOXXXXXXOOOXXXXXX   XXX   $$$$$$",
"$$$###   XXX                                                XXX   ###$$$",
"$$$###   XXX                                                XXX   ###$$$",
"$$$###   XXX                                                XXX   ###$$$",
"$$$$$$      %%%##################$$$###$$$$$$$$$$$$%%%%%%%%%      ######",
"$$$$$$      %%%##################$$$###$$$$$$$$$$$$%%%%%%%%%      ######",
"$$$$$$      %%%##################$$$###$$$$$$$$$$$$%%%%%%%%%      ######",
"######%%%%%%$$$$$$$$$############$$$$$$$$$$$$$$$$$$%%%%%%%%%%%%%%%%%%###",
"######%%%%%%$$$$$$$$$############$$$$$$$$$$$$$$$$$$%%%%%%%%%%%%%%%%%%###",
"######%%%%%%$$$$$$$$$############$$$$$$$$$$$$$$$$$$%%%%%%%%%%%%%%%%%%###",
"%%%%%%%%%%%%$$$$$$$$$$$$$$$$$$$$$$$$$$$$$$$$$$$$$$$$$$$$$$$$$$$$$$$$$%%%",
"%%%%%%%%%%%%$$$$$$$$$$$$$$$$$$$$$$$$$$$$$$$$$$$$$$$$$$$$$$$$$$$$$$$$$%%%",
"%%%%%%%%%%%%$$$$$$$$$$$$$$$$$$$$$$$$$$$$$$$$$$$$$$$$$$$$$$$$$$$$$$$$$%%%"
};
