/* XPM */
static char *_b44e87732ea44ff8cc75ee9d9074ba1[] = {
/* columns rows colors chars-per-pixel */
"72 72 3 1 ",
"  c #468A36",
". c #5F9736",
"X c #77A236",
/* pixels */
"..........................................XXX...         ......      ...",
"..........................................XXX...         ......      ...",
"..........................................XXX...         ......      ...",
"...................................................                  ...",
"...................................................                  ...",
"...................................................                  ...",
".................................            ......                  ...",
".................................            ......                  ...",
".................................            ......                  ...",
"..................      .........               ......               ...",
"..................      .........               ......               ...",
"..................      .........               ......               ...",
"XXX...............            ......                                    ",
"XXX...............            ......                                    ",
"XXX...............            ......                                    ",
".....................            ......                                 ",
".....................            ......                                 ",
".....................            ......                                 ",
"...............                  ...............                        ",
"...............                  ...............                        ",
"...............                  ...............                        ",
"............                     ...         .........                  ",
"............                     ...         .........                  ",
"............                     ...         .........                  ",
"....................................                                    ",
"....................................                                    ",
"....................................                                    ",
"XXXXXX.....................                                             ",
"XXXXXX.....................                                             ",
"XXXXXX.....................                                             ",
"..............................                                          ",
"..............................                                          ",
"..............................                                          ",
".........               ............                                    ",
".........               ............                                    ",
".........               ............                                    ",
"............               ..................                           ",
"............               ..................                           ",
"............               ..................                           ",
"XXXXXXXXXXXXXXXXXXXXX      ............      ......                     ",
"XXXXXXXXXXXXXXXXXXXXX      ............      ......                     ",
"XXXXXXXXXXXXXXXXXXXXX      ............      ......                     ",
"XXX...............XXXXXXXXXXXX............         ...                  ",
"XXX...............XXXXXXXXXXXX............         ...                  ",
"XXX...............XXXXXXXXXXXX............         ...                  ",
"XXXXXXXXX............XXXXXXXXXXXXXXX                  ...               ",
"XXXXXXXXX............XXXXXXXXXXXXXXX                  ...               ",
"XXXXXXXXX............XXXXXXXXXXXXXXX                  ...               ",
"...........................   ...XXX......            ......         ...",
"...........................   ...XXX......            ......         ...",
"...........................   ...XXX......            ......         ...",
"XXX...            .........      ........................         ......",
"XXX...            .........      ........................         ......",
"XXX...            .........      ........................         ......",
"XXXXXX...                           ...............XXX......      ......",
"XXXXXX...                           ...............XXX......      ......",
"XXXXXX...                           ...............XXX......      ......",
"............                           ...............XXXXXX............",
"............                           ...............XXXXXX............",
"............                           ...............XXXXXX............",
"..................                        ...............XXXXXX.........",
"..................                        ...............XXXXXX.........",
"..................                        ...............XXXXXX.........",
"......                                    ...............XXXXXXXXX......",
"......                                    ...............XXXXXXXXX......",
"......                                    ...............XXXXXXXXX......",
".........                           ...   ............XXXXXXXXXXXXXXXXXX",
".........                           ...   ............XXXXXXXXXXXXXXXXXX",
".........                           ...   ............XXXXXXXXXXXXXXXXXX",
"........................            ..................XXXXXXXXXXXXXXXXXX",
"........................            ..................XXXXXXXXXXXXXXXXXX",
"........................            ..................XXXXXXXXXXXXXXXXXX"
};
