/* XPM */
static char *_04be73192974845a9b7daec105f16cblX799S3yrYwCfYxx[] = {
/* columns rows colors chars-per-pixel */
"72 72 21 1 ",
"  c #131327",
". c #251127",
"X c #5C1111",
"o c #46242C",
"O c #582F28",
"+ c #623436",
"@ c #2A2A47",
"# c #464B67",
"$ c #801B1B",
"% c #8B4335",
"& c #B56C4E",
"* c #BD7549",
"= c #FF737A",
"- c #468A36",
"; c #5F9736",
": c #77A236",
"> c #E09E68",
", c #FFA69D",
"< c #FFC380",
"1 c #FDCBB0",
"2 c #FFE9A6",
/* pixels */
";;;;;;;;;;;;;;;;;;;;;;;;;;;;;;;;;;;;;;;;;;:::;;;---------;;;;;;------;;;",
";;;;;;;;;;;;;;;;;;;;;;;;;;;;;;;;;;;;;;;;;;:::;;;---------;;;;;;------;;;",
";;;;;;;;;;;;;;;;;;;;;;;;;;;;;;;;;;;;;;;;;;:::;;;---------;;;;;;------;;;",
";;;;;;;;;;;;;;;;;;;;;;;;;;;;;;;;;;;;;;;;;;;;;;;;;;;------------------;;;",
";;;;;;;;;;;;;;;;;;;;;;;;;;;;;;;;;;;;;;;;;;;;;;;;;;;------------------;;;",
";;;;;;;;;;;;;;;;;;;;;;;;;;;;;;;;;;;;;;;;;;;;;;;;;;;------------------;;;",
";;;;;;;;;;;;;;;;;;;;;;;;............OOOOOOOOO;;;;;;------------------;;;",
";;;;;;;;;;;;;;;;;;;;;;;;............OOOOOOOOO;;;;;;------------------;;;",
";;;;;;;;;;;;;;;;;;;;;;;;............OOOOOOOOO;;;;;;------------------;;;",
";;;;;;;;;;;;;;;;;;---...&&&%%%%%%%%%<<<<<<222OOO;;;;;;---------------;;;",
";;;;;;;;;;;;;;;;;;---...&&&%%%%%%%%%<<<<<<222OOO;;;;;;---------------;;;",
";;;;;;;;;;;;;;;;;;---...&&&%%%%%%%%%<<<<<<222OOO;;;;;;---------------;;;",
":::;;;;;;;;;;;;;;;...&&&&&&%%%%%%<<<<<<222222222OOO---------------------",
":::;;;;;;;;;;;;;;;...&&&&&&%%%%%%<<<<<<222222222OOO---------------------",
":::;;;;;;;;;;;;;;;...&&&&&&%%%%%%<<<<<<222222222OOO---------------------",
";;;;;;;;;;;;;;;...+++&&&&&&&&&&&&222222222222222>>>OOO------------------",
";;;;;;;;;;;;;;;...+++&&&&&&&&&&&&222222222222222>>>OOO------------------",
";;;;;;;;;;;;;;;...+++&&&&&&&&&&&&222222222222222>>>OOO------------------",
";;;;;;;;;;;;;;;...+++%%%%%%&&&&&&222222222<<<<<<>>>OOO------------------",
";;;;;;;;;;;;;;;...+++%%%%%%&&&&&&222222222<<<<<<>>>OOO------------------",
";;;;;;;;;;;;;;;...+++%%%%%%&&&&&&222222222<<<<<<>>>OOO------------------",
";;;;;;;;;;;;---...+++++++++++++++>>>>>>>>><<<<<<>>>OOO------------------",
";;;;;;;;;;;;---...+++++++++++++++>>>>>>>>><<<<<<>>>OOO------------------",
";;;;;;;;;;;;---...+++++++++++++++>>>>>>>>><<<<<<>>>OOO------------------",
";;;;;;;;;;;;;;;...ooo+++111++++++>>>111>>>>>><<<>>>OOO------------------",
";;;;;;;;;;;;;;;...ooo+++111++++++>>>111>>>>>><<<>>>OOO------------------",
";;;;;;;;;;;;;;;...ooo+++111++++++>>>111>>>>>><<<>>>OOO------------------",
"::::::;;;;;;;;;...111+++   +++111111   >>>***111***OOO------------------",
"::::::;;;;;;;;;...111+++   +++111111   >>>***111***OOO------------------",
"::::::;;;;;;;;;...111+++   +++111111   >>>***111***OOO------------------",
";;;;;;;;;;;;;;;...111+++   111111111   >>>***111***OOO------------------",
";;;;;;;;;;;;;;;...111+++   111111111   >>>***111***OOO------------------",
";;;;;;;;;;;;;;;...111+++   111111111   >>>***111***OOO------------------",
";;;;;;;;;------...ooo+++,,,111111111,,,>>>******OOO---------------------",
";;;;;;;;;------...ooo+++,,,111111111,,,>>>******OOO---------------------",
";;;;;;;;;------...ooo+++,,,111111111,,,>>>******OOO---------------------",
";;;;;;;;;;;;------...+++XXXXXX$$$$$$$$$>>>***OOO------------------------",
";;;;;;;;;;;;------...+++XXXXXX$$$$$$$$$>>>***OOO------------------------",
";;;;;;;;;;;;------...+++XXXXXX$$$$$$$$$>>>***OOO------------------------",
":::::::::::::::::::::+++@@@@@@111111###>>>$$$;;;;;;---------------------",
":::::::::::::::::::::+++@@@@@@111111###>>>$$$;;;;;;---------------------",
":::::::::::::::::::::+++@@@@@@111111###>>>$$$;;;;;;---------------------",
":::;;;;;;;;;;;;;;;:::XXX@@@###############111$$$---;;;------------------",
":::;;;;;;;;;;;;;;;:::XXX@@@###############111$$$---;;;------------------",
":::;;;;;;;;;;;;;;;:::XXX@@@###############111$$$---;;;------------------",
":::::::::;;;;;;;;;;;;XXX@@@###############111$$$------;;;---------------",
":::::::::;;;;;;;;;;;;XXX@@@###############111$$$------;;;---------------",
":::::::::;;;;;;;;;;;;XXX@@@###############111$$$------;;;---------------",
";;;;;;;;;;;;;;;;;;XXX===XXX111111111111XXX111111$$$---;;;;;;---------;;;",
";;;;;;;;;;;;;;;;;;XXX===XXX111111111111XXX111111$$$---;;;;;;---------;;;",
";;;;;;;;;;;;;;;;;;XXX===XXX111111111111XXX111111$$$---;;;;;;---------;;;",
":::;;;------------XXX===@@@@@@############111111$$$;;;;;;---------;;;;;;",
":::;;;------------XXX===@@@@@@############111111$$$;;;;;;---------;;;;;;",
":::;;;------------XXX===@@@@@@############111111$$$;;;;;;---------;;;;;;",
"::::::;;;---------XXXXXX@@@@@@@@@@@@######$$$$$$$$$:::;;;;;;------;;;;;;",
"::::::;;;---------XXXXXX@@@@@@@@@@@@######$$$$$$$$$:::;;;;;;------;;;;;;",
"::::::;;;---------XXXXXX@@@@@@@@@@@@######$$$$$$$$$:::;;;;;;------;;;;;;",
";;;;;;;;;;;;------------   @@@@@@   @@@###   ;;;;;;;;;::::::;;;;;;;;;;;;",
";;;;;;;;;;;;------------   @@@@@@   @@@###   ;;;;;;;;;::::::;;;;;;;;;;;;",
";;;;;;;;;;;;------------   @@@@@@   @@@###   ;;;;;;;;;::::::;;;;;;;;;;;;",
";;;;;;;;;;;;;;;;;;---------      ---         ;;;;;;;;;;;;::::::;;;;;;;;;",
";;;;;;;;;;;;;;;;;;---------      ---         ;;;;;;;;;;;;::::::;;;;;;;;;",
";;;;;;;;;;;;;;;;;;---------      ---         ;;;;;;;;;;;;::::::;;;;;;;;;",
";;;;;;------------------------------------;;;;;;;;;;;;;;;:::::::::;;;;;;",
";;;;;;------------------------------------;;;;;;;;;;;;;;;:::::::::;;;;;;",
";;;;;;------------------------------------;;;;;;;;;;;;;;;:::::::::;;;;;;",
";;;;;;;;;---------------------------;;;---;;;;;;;;;;;;::::::::::::::::::",
";;;;;;;;;---------------------------;;;---;;;;;;;;;;;;::::::::::::::::::",
";;;;;;;;;---------------------------;;;---;;;;;;;;;;;;::::::::::::::::::",
";;;;;;;;;;;;;;;;;;;;;;;;------------;;;;;;;;;;;;;;;;;;::::::::::::::::::",
";;;;;;;;;;;;;;;;;;;;;;;;------------;;;;;;;;;;;;;;;;;;::::::::::::::::::",
";;;;;;;;;;;;;;;;;;;;;;;;------------;;;;;;;;;;;;;;;;;;::::::::::::::::::"
};
