/* XPM */
static char *_43a034bc50240f7ac660b3ba25713f2LZCwrUql3CcAQpcj[] = {
/* columns rows colors chars-per-pixel */
"72 72 8 1 ",
"  c #131327",
". c #2A2A47",
"X c #468A36",
"o c #5F9736",
"O c #77A236",
"+ c #1DAA45",
"@ c #89DD47",
"# c #F4FF9B",
/* pixels */
"ooooooooooooooooooooooooooooooooooooooooooOOOoooXXXXXXXXXooooooXXXXXXooo",
"ooooooooooooooooooooooooooooooooooooooooooOOOoooXXXXXXXXXooooooXXXXXXooo",
"ooooooooooooooooooooooooooooooooooooooooooOOOoooXXXXXXXXXooooooXXXXXXooo",
"oooooooooooooooooooooooooooooooooooooooooooooooooooXXXXXXXXXXXXXXXXXXooo",
"oooooooooooooooooooooooooooooooooooooooooooooooooooXXXXXXXXXXXXXXXXXXooo",
"oooooooooooooooooo    oooo              oooooooooooXXXXXXXXXXXXXXXXXXooo",
"oooooooooooooooooo    oooo              XXXXXooooooXXXXXXXXXXXXXXXXXXooo",
"oooooooooooooooooo  @@    @@@@@@@@@@@@@@          oXXXXXXXXXXXXXXXXXXooo",
"oooooooooooooooooo  @@    @@@@@@@@@@@@@@          oXXXXXXXXXXXXXXXXXXooo",
"oooooooooooooooooo  @@@@@@@@@@@@@@@@@@@@@@@@@@@@@@  ooXXXXXXXXXXXXXXXooo",
"oooooooooooooooooo  @@@@@@@@@@@@@@@@@@@@@@@@@@@@@@  ooXXXXXXXXXXXXXXXooo",
"oooooooooooooooooo    @@##@@@@@@@@@@@@@@@@@@@@@@@@@@  XXXXXXXXXXXXXXXooo",
"OOOooooooooooooooo    @@##@@@@@@@@@@@@@@@@@@@@@@@@@@  XXXXXXXXXXXXXXXXXX",
"OOOooooooooooooo    @@####@@@@@@@@@@@@@@@@@@######@@@@        XXXXXXXXXX",
"OOOooooooooooooo    @@####@@@@@@@@@@@@@@@@@@######@@@@        XXXXXXXXXX",
"oooooooooooooooo  @@######@@@@@@@@@@@@@@@@@@@@########@@@@@@  XXXXXXXXXX",
"oooooooooooooooo  @@######@@@@@@@@@@@@@@@@@@@@########@@@@@@  XXXXXXXXXX",
"oooooooooooo    ########@@##@@@@@@@@@@@@@@@@@@############  XXXXXXXXXXXX",
"oooooooooooo    ########@@##@@@@@@@@@@@@@@@@@@############  XXXXXXXXXXXX",
"oooooooooo  @@@@####@@@@######@@@@@@@@@@##@@########@@@@@@  XXXXXXXXXXXX",
"oooooooooo  @@@@####@@@@######@@@@@@@@@@##@@########@@@@@@  XXXXXXXXXXXX",
"oooooooo  @@@@@@@@@@@@######@@@@####@@@@############@@@@@@@@  XXXXXXXXXX",
"oooooooo  @@@@@@@@@@@@######@@@@####@@@@############@@@@@@@@  XXXXXXXXXX",
"oooooooo      @@@@@@########@@########@@@@######@@@@@@@@@@@@@@  XXXXXXXX",
"oooooooo      @@@@@@########@@########@@@@######@@@@@@@@@@@@@@  XXXXXXXX",
"oooooooo  @@@@@@@@@@######@@@@@@######..@@@@##@@@@@@@@@@..      XXXXXXXX",
"oooooooo  @@@@@@@@@@######@@@@@@######..@@@@##@@@@@@@@@@..      XXXXXXXX",
"OOOOOO  @@@@@@..@@@@@@@@@@@@@@@@@@@@@@....@@@@@@@@@@@@@@..  XXXXXXXXXXXX",
"OOOOOO  @@@@@@..@@@@@@@@@@@@@@@@@@@@@@....@@@@@@@@@@@@@@..  XXXXXXXXXXXX",
"OOOOOO  @@@@......@@@@@@@@..@@@@++@@@@..........@@@@......  XXXXXXXXXXXX",
"oooooo  @@@@......@@@@@@@@..@@@@++@@@@..........@@@@......  XXXXXXXXXXXX",
"oooooooo    ..++....@@......@@@@++@@@@++........++@@@@......  XXXXXXXXXX",
"oooooooo    ..++....@@......@@@@++@@@@++........++@@@@......  XXXXXXXXXX",
"oooooooo  ..++++++........++++@@++@@@@@@++++..........++++..  XXXXXXXXXX",
"oooooooo  ..++++++........++++@@++@@@@@@++++..........++++..  XXXXXXXXXX",
"oooooo  @@@@@@@@++++....++++++++++++++@@++++++++++++++++++@@@@  XXXXXXXX",
"oooooo  @@@@@@@@++++....++++++++++++++@@++++++++++++++++++@@@@  XXXXXXXX",
"oooo  @@@@@@@@++++@@@@@@@@@@++++++++@@@@@@@@++++++++++@@@@@@@@@@  XXXXXX",
"oooo  @@@@@@@@++++@@@@@@@@@@++++++++@@@@@@@@++++++++++@@@@@@@@@@  XXXXXX",
"OOOO  @@@@@@++++##@@@@@@@@@@++++@@@@@@@@@@##@@++++@@@@####@@@@@@@@  XXXX",
"OOOO  @@@@@@++++##@@@@@@@@@@++++@@@@@@@@@@##@@++++@@@@####@@@@@@@@  XXXX",
"OOOOOO      ++########@@@@@@++@@@@@@@@@@@@####@@++############      XXXX",
"OOOooo      ++########@@@@@@++@@@@@@@@@@@@####@@++############      XXXX",
"OOOooo    ##########++##@@@@@@##@@@@@@@@######@@@@############    XXXXXX",
"OOOooo    ##########++##@@@@@@##@@@@@@@@######@@@@############    XXXXXX",
"OOOO  @@@@##########++####@@..##################@@##############  XXXXXX",
"OOOO  @@@@##########++####@@..##################@@##############  XXXXXX",
"OOOO@@@@  @@@@##@@@@######@@@@##################@@@@####@@@@@@@@@@  XXXX",
"oooo@@@@  @@@@##@@@@######@@@@##################@@@@####@@@@@@@@@@  Xooo",
"oooo      @@@@@@@@@@##@@@@@@@@##########@@@@@@@@@@@@@@@@@@@@@@..@@@@Xooo",
"oooo      @@@@@@@@@@##@@@@@@@@##########@@@@@@@@@@@@@@@@@@@@@@..@@@@Xooo",
"OOOooo  @@@@@@@@@@@@@@@@@@..@@##@@@@..@@@@@@@@@@@@@@@@..@@@@@@..    oooo",
"OOOooo  @@@@@@@@@@@@@@@@@@..@@##@@@@..@@@@@@@@@@@@@@@@..@@@@@@..    oooo",
"OOOooo@@@@++++@@@@@@@@@@@@..@@@@@@@@....@@@@@@......@@@@..@@@@..  oooooo",
"OOOOOO@@@@++++@@@@@@@@@@@@..@@@@@@@@....@@@@@@......@@@@..@@@@..  oooooo",
"OOOO  @@@@++++@@@@++....@@....@@@@@@........@@........@@........  oooooo",
"OOOO  @@@@++++@@@@++....@@....@@@@@@........@@........@@........  oooooo",
"oooo@@@@    ++++..................@@........................++..    oooo",
"oooo@@@@    ++++..................@@........................++..    oooo",
"oooo      ....++............++........++++....++++++......++++++..  oooo",
"oooo      ....++............++........++++....++++++......++++++..  oooo",
"oooooooo      ......++      ++++++..  ++++      ++++++++++++        oooo",
"oooooooo      ......++      ++++++..  ++++      ++++++++++++        oooo",
"ooooooXXXXXX          XXXX    ++++++        oooo    ++++    OOOOOOoooooo",
"ooooooXXXXXX          XXXX    ++++++        oooo    ++++    OOOOOOoooooo",
"ooooooXXXXXXXXXXXXXXXXXXXXXX        XXXXXXoooooooooo    oOOOOOOOOOoooooo",
"oooooooooXXXXXXXXXXXXXXXXXXX        oooXXXoooooooooo    OOOOOOOOOOOOOOOO",
"oooooooooXXXXXXXXXXXXXXXXXXXXXXXXXXXoooXXXooooooooooooOOOOOOOOOOOOOOOOOO",
"oooooooooXXXXXXXXXXXXXXXXXXXXXXXXXXXoooXXXooooooooooooOOOOOOOOOOOOOOOOOO",
"ooooooooooooooooooooooooXXXXXXXXXXXXooooooooooooooooooOOOOOOOOOOOOOOOOOO",
"ooooooooooooooooooooooooXXXXXXXXXXXXooooooooooooooooooOOOOOOOOOOOOOOOOOO",
"ooooooooooooooooooooooooXXXXXXXXXXXXooooooooooooooooooOOOOOOOOOOOOOOOOOO"
};
