/* XPM */
static char *fba5d5cb04f24ea1c91add2fb01cb116NRvwbxjuW5ALEziK[] = {
/* columns rows colors chars-per-pixel */
"72 72 12 1 ",
"  c #623436",
". c #1F5347",
"X c #B95027",
"o c #D1690A",
"O c #468A36",
"+ c #5F9736",
"@ c #6AA236",
"# c #77A236",
"$ c #A5C543",
"% c #3CB1C8",
"& c #82EBCF",
"* c #FFFCFD",
/* pixels */
"####++++++++++.....++++++...++++++......+++++++++....+@@++++++++++++++++",
"#####+++++++@@......@@@@@...@@@@@@......@@@@..@@......@@++++++++++++++++",
"######+++++++@..XX........XX......XXXXXX..........XX..@@+++++++++++O++++",
"######+++++$@@..XX........XX......XXXXXX..........XX..@@+++++++O+++O++++",
"######++++..@@..XXXXXXooooooooooXXoooooooooooo  XXXX..@@..++++OO++++++++",
"+#####+++$..@@..XXXXXXooooooooooXXoooooooooooo  XXXX..@@..++++OO++++++++",
"++####++$$@@....XXXXXXXXooooooXX  oooooooooooo  XXXX....@@$+++OO++++++++",
"+#####+++$@@....XXXXXXXXooooooXX  oooooooooooo  XXXX....@@$+++OOO+++++++",
"+#####+$..@@..  XXXX  XXooooooXX  XXoooooooooo  XXXX  ..@@@@$+OOO+++++++",
"+#####+$..@@..  XXXX  XXooooooXX  XXoooooooooo  XXXX  ..@@..$+OOO+++O+++",
"+#####+@@@....        XXXXooXX    XXooooooXXXX        ......@+OOO+++O+++",
"+#++##+@@@....        XXXXooXX    XXooooooXXXX        ....@@@+OOO+++O+++",
"###+##++$$$$..          XXXX      XXXXooooXX            ..@@$+OOO+++++O+",
"###+##++++$$..          XXXX      XXXXooooXX            ..@@$+OOO+++++O+",
"###+##+.....  **%%%%%%**        %%XXXXXXXX  %%%%%%%%**  .....+OOO++O++++",
"+##+#+#.....  **%%%%%%**        %%XXXXXXXX  %%%%%%%%**  .....+OOO+OO++++",
"++###+#@..  **%%%%&&%%%%**%%****%%****XXXX%%**%%&&%%%%**  ..@+OOO+OO++O+",
"+++##+#@..  **%%%%&&%%%%**%%****%%****XXXX%%**%%&&%%%%**  ..@+OO++OOO+O+",
"+++####$@@..%%&&&&&&%%%%%%%%%%%%%%%%%%****%%%%&&&&&&&&%%..@@$+OO++OOO+O+",
"++++#++$@@..%%&&&&&&%%%%%%%%%%%%%%%%%%****%%%%&&&&&&&&%%..@@$+O+++OO+OO+",
"++++#++@..%%&&&&&&&&&&%%%%%%%%&&&&%%%%%%%%%%&&&&&&&&&&&&%%..@+O+++OO+OO+",
"++++#++@..%%&&&&&&&&&&%%%%%%%%&&&&%%%%%%%%%%&&&&&&&&&&&&%%..@+O+++O+OOO+",
"+######...%%&&&&&&&&&&&&&&&&&&&&&&&&&&&&&&&&&&&&&&&&&&&&%%...+++++++OOO+",
"+#######..%%&&&&&&&&&&&&&&&&&&&&&&&&&&&&&&&&&&&&&&&&&&&&%%...+++++++OO++",
"+#######++..&&&&&&&&&&&&&&&&&&&&&&&&&&&&&&&&&&&&&&&&&&&&..$$++++++++OO++",
"+#######++..&&&&&&&&&&&&&&&&&&&&&&&&&&&&&&&&&&&&&&&&&&&&..$$++++++++OO++",
"++######++++..&&&&&&&&&&&&&&&&&&&&&&&&&&&&&&&&&&&&&&&&..$$$$++++++++OO++",
"++++####++++..&&&&&&&&&&&&&&&&&&&&&&&&&&&&&&&&&&&&&&&&..$$$$++++++++O+++",
"++++++++@@@@..&&&&&&&&&&&&&&&&&&&&&&&&&&&&&&&&&&&&&&&&..@@@@++++++++++++",
"######++@@@@..&&&&&&&&&&&&&&&&&&&&&&&&&&&&&&&&&&&&&&&&..@@++++++++++++O+",
"+#+##+++@@....&&&&&&&&&&&&&&&&&&&&&&&&&&&&&&&&&&&&&&&&....@@++++++O+++O+",
"+######+@@....&&&&&&&&&&&&&&&&&&&&&&&&&&&&&&&&&&&&&&&&....@@+++OO+++++O+",
"+########+..&&&&&&&&&&&&&&&&&&&&&&&&&&&&&&&&&&&&&&&&&&&&..+++++OO+++++O+",
"++#######+..&&&&&&&&&&&&&&&&&&&&&&&&&&&&&&&&&&&&&&&&&&&&..+++++OO+++++O+",
"++#######+++..&&&&&&&&&&&&&&&&&&&&&&&&&&&&&&&&&&&&&&&&..$$$++++O+O++++O+",
"++######..++..&&&&&&&&&&&&&&&&&&&&&&&&&&&&&&&&&&&&&&&&..$$$++++O+O++++++",
"++####....@@..&&&&&&&&&&&&&&&&&&&&&&&&&&&&&&&&&&&&&&&&..@@@@@++O+O++++++",
"++####..@@@@..&&&&&&&&&&&&&&&&&&&&&&&&&&&&&&&&&&&&&&&&..@@@@@++O+O++++++",
"++####+@......&&&&&&&&&&&&&&&&&&&&&&&&&&&&&&&&&&&&&&&&......@++O+O++++O+",
"#######@......&&&&&&&&&&&&&&&&&&&&&&&&&&&&&&&&&&&&&&&&......@++++O++++O+",
"#######@@@..&&&&&&&&&&&&&&&&&&&&&&&&&&&&&&&&&&&&&&&&&&&&..@@@++++O++++O+",
"#######@@@..&&&&&&&&&&&&&&&&&&&&&&&&&&&&&&&&&&&&&&&&&&&&..@@@++O+OO+++O+",
"######++@@@@..&&&&&&&&&&&&&&&&&&&&&&&&&&&&&&&&&&&&&&&&..@@@@+++O+OO+++O+",
"###+#+#+@@@@..&&&&&&&&&&&&&&&&&&&&&&&&&&&&&&&&&&&&&&&&..@@@@+++O++O+++O+",
"###+#+#+++@@..&&&&&&&&&&&&&&&&&&&&&&&&&&&&&&&&&&&&&&&&..@@$$+++OO+O+++O+",
"#######+++@@..&&&&&&&&&&&&&&&&&&&&&&&&&&&&&&&&&&&&&&&&..@@$$++++O+O+OO++",
"#######+@@..&&&&&&&&&&&&&&&&&&&&&&&&&&&&&&&&&&&&&&&&&&&&..@@$+++++O+OO++",
"#######+@@..&&&&&&&&&&&&&&&&&&&&&&&&&&&&&&&&&&&&&&&&&&&&..@@$+++++++OO++",
"++#+##++@@@@..&&&&&&&&&&&&&&&&&&&&&&&&&&&&&&&&&&&&&&&&..@@@@@+++++++O+++",
"++#+##++@@@@..&&&&&&&&&&&&&&&&&&&&&&&&&&&&&&&&&&&&&&&&..@@@@@+++++++++++",
"++#+#+++..@@..&&&&&&&&&&&&&&&&&&&&&&&&&&&&&&&&&&&&&&&&..@@..$+++++++++++",
"######O+..@@..&&&&&&&&&&&&&&&&&&&&&&&&&&&&&&&&&&&&&&&&..@@..$+OOOO++++++",
"####+#O+......&&&&&&&&&&&&&&&&&&&&&&&&&&&&&&&&&&&&&&&&......@+OOOO++++++",
"####++#+......&&&&&&&&&&&&&&&&&&&&&&&&&&&&&&&&&&&&&&&&......@+OOOO++++++",
"######+#..&&&&&&&&&&&&&&&&&&&&&&&&&&&&&&&&&&&&&&&&&&&&&&&&..$+OOOO++++++",
"######+#..&&&&&&&&&&&&&&&&&&&&&&&&&&&&&&&&&&&&&&&&&&&&&&&&..++OOOO++++++",
"######+##@....&&&&&&&&&&&&&&&&&&&&&&&&&&&&&&&&&&&&&&&&....@@..OOOO+OOOO+",
"+++#+++#@@....&&&&&&&&&&&&&&&&&&&&&&&&&&&&&&&&&&&&&&&&....@@..+++++OOOO+",
"+++##++#@@@@@@..&&&&......&&&&&&&&......&&......&&&&......@@+++++++OOOO+",
"+++##++#@@@@@@..&&&&......&&&&&&&&......&&......&&&&......@@+++++++OOOO+",
"+++##++#++++@@..&&&&..$$$$....&&..$$@@....$$++..&&&&.#......++#++OOOOOO+",
"+++##++#++++@@..&&&&..$$$+....&&..$$@@....$$++..&&...####$..++#++OOOOOO+",
"##+##+++#+++............$+@@@@..+$$$....$$++@@.......####@$+++#++OOOOOO+",
"##+##+###+++..++++......$+@@@@..O+++....++++@@......#####@++++###OOOOOO+",
"##+###O++++#+OOOOO++++++$++##OOOO+++..$$++@@+++++########++++++##OOOO+++",
"##+##+O++++##OOOOOOOOO+++++#OO++OO++..$+++@@+############++O++OOOOOOO+++",
"##+##++++OOOOOOOOOOOOOOO########OOOO+++OOO+++########OOO###OOOOOOOOOO###",
"#######++OOOOOOOOOOOOOOOO#######OOOOO+###############OOO#####OOOOOOOO###",
"####+++##OOOOOOOOOOOOOO#########OOO##################OOO#####OOOOOOOO###",
"########++++++++++OOOOO#########OOO############+OOOOOOOOOOOOOOOOO#######",
"####################OOO#######OOOOO############+OOOOOOOO####OOOO########",
"####+++++####++++++++#+######OOOOOO############+OOOOOOOO####OOOO########"
};
